<?xml version="1.0" encoding="utf-8"?>
<!-- Generator: Adobe Illustrator 20.1.0, SVG Export Plug-In . SVG Version: 6.00 Build 0)  -->
<svg version="1.1" id="Layer_1" xmlns="http://www.w3.org/2000/svg" xmlns:xlink="http://www.w3.org/1999/xlink" x="0px" y="0px"
	 viewBox="0 0 537.2 391.9" style="enable-background:new 0 0 537.2 391.9;" xml:space="preserve">
<style type="text/css">
	.st0{fill:#DBDCDD;}
	.st1{fill:#F4F6F8;}
	.st2{fill:#FFFFFF;}
	.st3{fill:#FFD0C0;}
	.st4{fill:none;}
	.st5{fill:#FFC251;}
	.st6{fill:none;stroke:#FFC251;stroke-width:0.5;stroke-miterlimit:10;}
	.st7{fill:none;stroke:#6977BF;stroke-linecap:round;stroke-miterlimit:10;}
	.st8{fill:#F9BB6E;}
	.st9{fill:#382C19;}
	.st10{fill:#56462D;}
	.st11{fill:#352E25;}
	.st12{fill:#C18A40;}
	.st13{fill:#60C4C0;}
	.st14{fill:#4BA39B;}
	.st15{fill:#EF8E4D;}
	.st16{fill:#A2591E;}
	.st17{fill:#5C3110;}
	.st18{fill:#65543E;}
	.st19{fill:#704626;}
	.st20{fill:#AEC4C2;}
	.st21{opacity:0.4;fill:#5F6368;}
	.st22{fill:#D4F031;}
	.st23{fill:#8BD6F5;}
	.st24{fill:#FF5B98;}
	.st25{fill:#FFE028;}
	.st26{fill:#FFC2CC;}
</style>
<title>Artboard 1 copy 2</title>
<polygon class="st0" points="379.5,38.7 131.8,38.7 131.8,247 423.9,247 423.9,38.7 "/>
<polygon class="st1" points="371.4,32 123.7,32 123.7,240.2 415.8,240.2 415.8,32 "/>
<rect x="180.8" y="59.8" class="st2" width="213.7" height="108.2"/>
<path class="st3" d="M185.8,100.9c-0.6,0.6-3.2-0.6-3.2-0.6s0.3-5.2,1.2-6.7c0.5-0.8,3.2-2.3,3.6-1.4
	C187.9,93.9,186.7,100,185.8,100.9z"/>
<line class="st4" x1="207.5" y1="155.6" x2="202.8" y2="139.3"/>
<path class="st1" d="M185.9,81.8h23.4c2.2,0,4,1.8,4,4v8.9c0,2.2-1.8,4-4,4h-23.4c-2.2,0-4-1.8-4-4v-8.9
	C181.9,83.6,183.7,81.8,185.9,81.8z"/>
<path class="st1" d="M228.1,73.3h23.4c2.2,0,4,1.8,4,4v8.9c0,2.2-1.8,4-4,4h-23.4c-2.2,0-4-1.8-4-4v-8.9
	C224.1,75.1,225.9,73.3,228.1,73.3z"/>
<path class="st1" d="M215.4,100.8h23.4c2.2,0,4,1.8,4,4v8.9c0,2.2-1.8,4-4,4h-23.4c-2.2,0-4-1.8-4-4v-8.9
	C211.4,102.6,213.2,100.8,215.4,100.8z"/>
<path class="st1" d="M273.7,73.3h23.4c2.2,0,4,1.8,4,4v8.9c0,2.2-1.8,4-4,4h-23.4c-2.2,0-4-1.8-4-4v-8.9
	C269.7,75.1,271.5,73.3,273.7,73.3z"/>
<path class="st1" d="M262.6,100.8H286c2.2,0,4,1.8,4,4v8.9c0,2.2-1.8,4-4,4h-23.4c-2.2,0-4-1.8-4-4v-8.9
	C258.6,102.6,260.4,100.8,262.6,100.8z"/>
<circle class="st5" cx="209.3" cy="88" r="1.7"/>
<circle class="st5" cx="296.6" cy="89.6" r="1.7"/>
<circle class="st5" cx="223" cy="117.8" r="1.7"/>
<path class="st6" d="M265.8,100.8V67c0-2.2-1.3-3.9-2.9-3.9h-50.8c-1.6,0-2.9,1.8-2.9,3.9v22.5"/>
<path class="st6" d="M223,117.8L223,117.8c0,3.4,1.6,5.2,3.7,5.2h66c2,0,3.7-2.8,3.7-6.2V90.3"/>
<path class="st7" d="M230.3,94.5c0.3-0.9-0.7-1.8-1.7-1.8c-1,0.1-1.9,0.5-2.6,1.1c-2.4,1.8-4.7,3.8-6.8,6c-2.8,3-5.3,6.5-6.2,10.6
	s0.2,8.7,3.5,11.2c4.1,3.1,10.1,2.1,14.7-0.2c5.9-3,10.8-7.8,13.9-13.6c2.1-3.9,3.2-9.2,0.1-12.5c-2.7-3-7.5-2.8-11.4-1.6
	c-9.1,2.8-16.3,9.6-22.7,16.5"/>
<g>
	<ellipse class="st0" cx="150.1" cy="340.4" rx="46.2" ry="5.2"/>
	<path class="st8" d="M125,237.6c0,0,3.3,0.7,9.2,0.7c6,0,7.3-0.6,7.3-0.6l-1.7,27.3l-3.9,53.3l3.2,16.8l2.7,1.6l-6.5,0.2l-5-14.8
		c0,0,0.1-4.2-0.2-7c-0.3-2.9-2.1-16.6-2.4-24.5c-0.3-8,1.6-27.8,1.6-27.8L125,237.6z"/>
	<path class="st8" d="M145.6,237.6c0,0,2.3,1.4,8.8,1.2c6.5-0.2,7.8-1.6,7.8-1.6l-5.6,25.9l-3.8,53.1l3.3,18.6l3.3,2h-7.2l-4.9-15
		c0,0,0.2-1.7-0.1-5.2c-0.3-3.5-3.2-18.7-2.8-30.4s1.7-24.2,1.7-24.2L145.6,237.6z"/>
	<path class="st9" d="M130.3,321.8l5.6,14.8h7.5c0,0,0.8,0.3,0.8,1.7c0,1.4-1.1,1.2-4.5,1.2c-3.4,0-5.2,0-5.2,0s-0.8,0.1-1.7-2.6
		c-0.8-2.7-2.5-8.4-2.5-8.4l-2.2-1c0,0-1.2-2.9-0.3-4.2C128.7,322.1,130.3,321.8,130.3,321.8z"/>
	<polygon class="st10" points="128.1,327.5 130.1,339.6 130.7,339.6 130.3,328.5 	"/>
	<path class="st9" d="M147.3,321.7l4.9,15h7.5c0,0,0.8,0.3,0.8,1.7c0,1.4-1.1,1.2-4.5,1.2c-3.4,0-5.2,0-5.2,0s-0.8,0.1-1.7-2.6
		c-0.8-2.7-2.5-8.4-2.5-8.4l-2.2-1c0,0-1.2-2.9-0.3-4.2C145,322.1,147.3,321.7,147.3,321.7z"/>
	<polygon class="st10" points="144.4,327.5 146.4,339.6 147,339.6 146.6,328.5 	"/>
	<path class="st11" d="M165.3,208.3c-1.8-12-13.3-29-13.3-29l-9,0.2l-9,0.2c0,0-10.6,17.6-11.8,29.6c-1.2,12,6.9,53.2,6.9,53.2
		s-1.7,16.2-1.4,27.5c0.3,11.3,2.4,31,2.4,31l6.8-0.1l2.9-52.9l0.3-4.7l3-48.8l0.9-0.1l0.9,0.1l1.3,47.6c0,0-2,16.2-1.7,27.5
		c0.3,11.3,2.7,31,2.7,31l6.8-0.1l2.5-52.9l0.3-4.7C156.6,263,167.1,220.3,165.3,208.3z"/>
	<polygon class="st2" points="161.5,196.6 151.2,206.7 146.8,199.3 142.1,208.3 125.9,199.8 126.9,196.2 160.2,193.7 	"/>
	<path class="st8" d="M198.2,148.9l0.6-1.1c0,0-0.4-4.1,0.8-5.8c1.2-1.7,3.7-1,3.7-1s1.5-2.1,3-2c1.5,0.1,1.4,1.4,1.4,1.4
		s1.6,0.6,1.7,1.1c0.1,0.5,0,1.8,0,1.8s0.9,0.8,1,1.2c0.1,0.4-0.3,1.4-0.3,1.4s0.4,1.1,0,2s-2.7,2.1-4.1,2.9
		c-1.4,0.8-4.7,1.5-4.7,1.5L198.2,148.9z"/>
	<path class="st12" d="M158.4,99.5c0,0,0.2,3.7,1.7,5.5c1.5,1.8,1.8,2.7,0.9,4c-0.9,1.4-1.2,2.6,0,4.2c1.2,1.6,3.4,2.1,2,4.6
		c-1.4,2.5-0.7,3.9,1.5,6.8c2.2,3,3.9,11.2-0.9,12.7h-19.5V98.8L158.4,99.5z"/>
	<path class="st13" d="M155.7,134.6c0,0,3.1,2.5,5.1,6.6c2,4.1,10.2,20,19.3,18.2c9.1-1.8,17.3-12,17.3-12l5.5,5.9
		c0,0-13.6,16.6-26.2,15.9c-12.7-0.7-19.8-10-19.8-10l-4-18.6L155.7,134.6z"/>
	<path class="st13" d="M161.5,153.7c-0.3-4.6-5.6-9.5-5.6-9.5l-0.2-9.6c0,0-6-2.1-14.7-1.9c-8.7,0.2-14.5,2.6-14.5,2.6
		s-0.4,18.9,0.1,20c0.4,1,4.1,18.6,5.6,23.3l-6.2,17.3c0,0,9.5,2.3,19.6,1.9c10.1-0.4,14.8-4.1,14.8-4.1l-5.7-16.2l0,0l1.8-16.3
		C156.4,161.2,161.8,158.3,161.5,153.7z"/>
	<path class="st14" d="M160.6,154.8c0,0-9.4,4.4-10.2,4.4c-0.8,0-6.1-3.7-8.1-3.9c-2-0.2-8.6,5.1-8.3,5.5c0.3,0.4,15.8-0.5,16.8-0.4
		c1,0.1,5.5,0.9,5.5,0.9s2.7-2.1,3.8-3.7C161.2,155.9,160.6,154.8,160.6,154.8z"/>
	<path class="st8" d="M126.5,135.3c0,0-22.6,27.3-22.3,36.2c0.3,8.8,18.8,21.9,18.8,21.9s-2.4,8.3-2.7,8.4c-0.3,0.1-1.6-0.6-1.6-0.6
		s1.3-2.6,0.9-3.3c-0.3-0.7-1.8,0.8-2.6,2.4c-0.8,1.7-1,2.5-0.5,3.2c0.6,0.7,4.1,3.4,6.1,2.4c2.1-1,5.3-12.5,4.9-13.9s-7.5-8-9.5-11
		c-2-2.9-7-5.9-4.6-10.1c2.3-4.1,18-19.1,18.5-28.8C132.4,132.5,126.5,135.3,126.5,135.3z"/>
	<g>
		<path class="st12" d="M126.8,96.5c0,0,0.6,5.2-1,7c-1.6,1.8-1.8,4.2-0.9,5.6c1,1.4,1.3,2.6,0,4.2c-1.3,1.6-3.7,2.1-2.2,4.6
			c1.5,2.5,0.8,3.9-1.6,6.8c-2.4,3-4.2,11.2,1,12.7h21.3V98.9L126.8,96.5z"/>
		<path class="st8" d="M146.5,124.1l1.2,8.9c0,0-0.7,2.3-4.5,2.5c-3.9,0.2-6.6-2.4-6.6-2.4l0.8-11.4L146.5,124.1z"/>
		<path class="st15" d="M147.4,131.1c0,0-2.8-0.1-5.9-2c-3-1.9-4.3-4.4-4.3-4.4l0-1.4l9.7,4.6L147.4,131.1z"/>
		<path class="st8" d="M158.1,106.4l0,1.1c0.1,4.5-0.5,8.9-1.9,13.2c-1.2,3.6-4.3,7.3-5.9,7.5c-7,0.7-12.2-2.6-14.5-4.9
			c-2.3-2.4-4-5.8-4-5.8s-3.1,1-5-3.6c-1.9-4.6,0.2-5.6,0.2-5.6s1.4-0.7,2.9-0.2c1.6,0.6,1.9,1,1.9,1s-3-9.5-1.6-14.4
			c1.4-4.9,11.4-9.3,20.1-4.9C159.2,94.1,158.1,106.4,158.1,106.4z"/>
		<path class="st15" d="M127.4,112.4c0,0-0.5-2.1,0.1-2.6c0.6-0.5,2.9,0.2,3.5,2.7c0.6,2.5-0.4,2.6-1,2.5c-0.6-0.1-1.2-0.9-1-2.1
			c0.2-1.1,0.7-1,0.7-1s-0.8-1.8-1.7-1.6c-0.9,0.2-0.5,2-0.5,2L127.4,112.4z"/>
		<path class="st15" d="M152.4,114.3c-0.1-1.1-1.4-2-2-2.9c-0.4-0.6-0.7-1.1-1-1.8c-0.3-0.8-0.2-1.5-0.3-2.3c0-0.1-0.1-0.1-0.1,0
			c-0.7,1.4,0,3.5,0.8,4.7c0.2,0.3,0.4,0.6,0.7,0.9c0.3,0.4,1.1,1.1,0.9,1.7c-0.1,0.4-0.8,0.7-1.2,0.8c-0.5,0.2-0.9,0.1-1.4-0.1
			c-0.1,0-0.2,0.1-0.2,0.2c0.2,0.9,1.4,0.9,2.1,0.6C151.7,115.9,152.5,115.4,152.4,114.3z"/>
		<g>
			<path class="st2" d="M150.4,120.5l2.5-0.2l0.5-1.9l-9.3,0.2c0,0,0.5,4.5,5.1,4.4c1.6,0,2.7-0.6,3.4-1.4l0.3-1.1L150.4,120.5z"/>
			<path class="st15" d="M153.3,118.4l-0.5,1.9l-2.5,0.2l2.5,0.1l-0.3,1.1c1.3-1.4,1.4-3.2,1.4-3.2L153.3,118.4z"/>
		</g>
		<path class="st16" d="M141.4,103.9c0.7-0.2,1.4-0.3,2.1-0.1c0.3,0.1,1.1,0.5,0.7,1c-0.3,0.4-0.7,0.2-1.1,0.2
			c-0.5,0-1.1,0.1-1.6,0.2c-0.4,0.1-0.9,0.2-1.3,0.4c-0.4,0.2-0.7,0.6-1.2,0.7c-0.2,0-0.4-0.1-0.4-0.3
			C138.7,104.8,140.5,104.2,141.4,103.9z"/>
		<path class="st16" d="M154.3,103.6c-0.6-0.1-1.3-0.2-1.9,0c-0.3,0.1-0.9,0.6-0.5,1c0.3,0.3,0.6,0.2,1,0.2c0.5,0,1,0,1.4,0.1
			c0.4,0.1,0.8,0.2,1.2,0.4c0.4,0.2,0.7,0.6,1.1,0.7c0.2,0,0.4-0.1,0.4-0.3C156.8,104.4,155.1,103.8,154.3,103.6z"/>
		<path class="st17" d="M154.1,107.4c0,0,0.1,0,0.1,0l0,0l2-0.3l-1.1,0.9l0,0c0.2,0.3,0.3,0.6,0.3,1c0,0.9-0.5,1.7-1.2,1.7
			c-0.7,0-1.2-0.7-1.3-1.6C152.9,108.2,153.4,107.4,154.1,107.4z"/>
		<path class="st17" d="M141.5,107.7c0,0,0.1,0,0.1,0l0,0l2-0.3l-1.1,0.9l0,0c0.2,0.3,0.3,0.6,0.3,1c0,0.9-0.5,1.7-1.2,1.7
			s-1.2-0.7-1.3-1.6C140.3,108.5,140.8,107.8,141.5,107.7z"/>
		<path class="st12" d="M158.7,106l-3.4-5.6c0,0-15.7-0.9-20.4-4.8c0,0-1.1,7.8-3.4,12.5c0,0-11.8-16.1,1.9-18.9
			c0,0,2.9-5.7,10.7-6.1C152.2,82.8,163.8,89.8,158.7,106z"/>
	</g>
	<path class="st13" d="M130.3,134.2c0,0-2.5-1.1-5.9,2.9c-3.4,4.1-14.4,19.4-17,23.8c-2.6,4.4-5.6,7.7-3.1,13.6
		c2.5,5.9,6.8,9.8,10,12.7c3.2,2.9,7.7,7.1,7.7,7.1l5-5.7c0,0-13.3-14.2-12.8-16.2c0.5-2,10.7-14.3,14-18.8
		c3.3-4.5,6.6-11.5,5.2-15.6C132.1,133.8,130.3,134.2,130.3,134.2z"/>
	<polygon class="st8" points="150.1,133.3 148.3,144 138.3,135.1 147.7,132.8 	"/>
	<polygon class="st2" points="148.3,144 150.3,141.9 155.2,147.3 152.4,133.9 148.3,131.7 	"/>
	<polygon class="st2" points="148.3,144 144.8,142.3 142,148.1 130.3,134.2 136.6,131.1 	"/>
	<path class="st18" d="M202,144c0.4-0.5,25-36.9,25-36.9h1.2l-23.9,38.5L202,144z"/>
	<path id="XMLID_319_" class="st19" d="M140.5,114.5c2.8,0,5.3-1.4,6.3-5.2c0.1-0.3,0.2-0.4,0.3-0.5c0.2-0.1,0.8-0.2,1.1-0.2
		s0.6,0.1,0.8,0.2c0.2,0.1,0.6,0.2,0.6,0.5c1.1,3.7,3.5,5.2,6.3,5.2c3.4,0,5.7-2.4,6.1-5.5c0.1-0.6,0.5-0.6,0.6-0.6
		c0.2,0,0.5-0.3,0.5-0.8c0-0.4,0-0.8,0-1.1c0-0.5-0.2-0.7-0.6-0.7c-0.3,0-0.8-0.2-1.2-0.5c-1.2-1-2.4-1.9-4.7-1.9
		c-2.6,0-5.4,0.8-6.8,3.4c-0.2,0.5-0.3,0.6-0.4,0.6c-0.5-0.1-1-0.2-1.3-0.2c-0.3,0-0.8,0-1.3,0.2c-0.2,0.1-0.2-0.1-0.4-0.6
		c-1.3-2.6-4.2-3.4-6.8-3.4c-2.3,0-3.5,0.9-4.7,1.9c-0.4,0.3-0.8,0.5-1.2,0.5c-0.3,0-0.6,0.2-0.6,0.7c0,0.3,0,0.7,0,1.1
		c0,0.5,0.3,0.8,0.5,0.8c0.1,0,0.5,0,0.6,0.6C134.8,112.1,137.1,114.5,140.5,114.5z M156.6,104.5c3.2,0,4.8,1.6,4.8,3.5
		c0,3-2,5.6-5.5,5.6c-2.9,0-5.2-2.5-5.2-5.2C150.7,106.2,152.4,104.5,156.6,104.5z M139.9,104.5c4.2,0,5.9,1.7,5.9,3.9
		c0,2.7-2.2,5.2-5.2,5.2c-3.5,0-5.5-2.6-5.5-5.6C135.2,106.1,136.8,104.5,139.9,104.5z"/>
</g>
<g>
	<g>
		<path class="st20" d="M281.1,202.7c-1.1-1.2-4.6-3.5-6.2-2.2c-0.5,0.5-0.2,1.4,0.5,1.4c4.7,0.1,6.9,4.7,7.2,8.7
			c0,0.4,0.7,0.4,0.8,0C284.3,207.8,283.2,204.9,281.1,202.7z"/>
		<path class="st20" d="M278.9,198.4c-1.9-0.1-3.5,0.4-5.3,1.1c-0.3,0.1-0.5,0.5-0.4,0.8c0.2,0.9,0.7,1.8,1.1,2.7
			c0.4,0.8,0.7,1.6,1.5,1.9c0.4,0.2,0.8-0.2,0.9-0.6c0.1-0.8-0.4-1.4-0.8-2.1c-0.3-0.6-0.6-1.2-0.9-1.7c1.3-0.6,2.7-1,4-1.3
			C279.3,199,279.3,198.4,278.9,198.4z"/>
	</g>
	<g>
		<path class="st20" d="M299.1,149.5c0.3,1.6,2.2,5.4,4.2,5c0.7-0.1,0.9-1.1,0.3-1.5c-3.9-2.5-3.5-7.6-1.7-11.2
			c0.2-0.4-0.4-0.7-0.7-0.5C299,143.6,298.4,146.6,299.1,149.5z"/>
		<path class="st20" d="M298.8,154.4c1.6,1,3.3,1.5,5.1,1.8c0.3,0.1,0.7-0.2,0.7-0.5c0.3-0.9,0.3-1.9,0.4-2.9
			c0.1-0.9,0.2-1.7-0.3-2.4c-0.3-0.4-0.8-0.2-1,0.1c-0.5,0.6-0.4,1.4-0.4,2.2c0,0.7-0.1,1.3-0.1,2c-1.4-0.1-2.8-0.5-4.1-0.9
			C298.7,153.7,298.4,154.2,298.8,154.4z"/>
	</g>
	<g>
		<path class="st20" d="M349.2,175.4c1,1.3,2.7,5.1,1.1,6.4c-0.5,0.5-1.4,0-1.3-0.7c0.6-4.6-3.5-7.6-7.4-8.6
			c-0.4-0.1-0.3-0.8,0.1-0.8C344.8,171.5,347.5,173.1,349.2,175.4z"/>
		<path class="st20" d="M353.1,178.4c-0.3,1.9-1,3.4-1.9,5.1c-0.2,0.3-0.6,0.4-0.9,0.2c-0.9-0.4-1.7-1-2.4-1.6
			c-0.7-0.5-1.4-0.9-1.6-1.8c-0.1-0.5,0.3-0.8,0.7-0.7c0.8,0,1.3,0.7,2,1.1c0.5,0.4,1,0.8,1.5,1.2c0.8-1.1,1.4-2.5,2-3.7
			C352.6,177.9,353.2,178,353.1,178.4z"/>
	</g>
	<g>
		<g>
			<polygon class="st21" points="247.1,164.6 262.9,165.4 264,151.6 248.3,151.6 			"/>
			<rect x="248.3" y="147.8" class="st22" width="15.8" height="15.8"/>
		</g>
		<g>
			<polygon class="st21" points="274.4,148 290.1,148.8 291.3,134.9 275.5,134.9 			"/>
			<rect x="275.5" y="131.2" class="st22" width="15.8" height="15.8"/>
		</g>
		<g>
			<polygon class="st21" points="396.6,179.4 407.9,181.3 409,167.4 393.3,167.4 			"/>
			<rect x="393.3" y="163.7" class="st22" width="15.8" height="15.8"/>
		</g>
		<g>
			<polygon class="st21" points="348.9,78.1 364,78.1 365.2,64.2 349.4,64.2 			"/>
			<rect x="349.4" y="60.5" class="st22" width="15.8" height="15.8"/>
		</g>
		<g>
			<polygon class="st21" points="270,231.3 285.8,232.1 286.9,218.2 271.1,218.2 			"/>
			<rect x="271.1" y="214.5" class="st23" width="15.8" height="15.8"/>
		</g>
		<g>
			<polygon class="st21" points="308.8,84.2 324.5,85 325.7,71.1 309.9,71.1 			"/>
			<rect x="309.9" y="67.4" class="st23" width="15.8" height="15.8"/>
		</g>
		<g>
			<polygon class="st21" points="323.5,80 339.2,80.9 340.4,67 324.6,67 			"/>
			<rect x="324.6" y="63.2" class="st24" width="15.8" height="15.8"/>
		</g>
		<g>
			<polygon class="st21" points="309.8,205 325.2,208.2 328.5,194.6 312.9,192.2 			"/>
			
				<rect x="312.2" y="189.7" transform="matrix(0.9883 0.1527 -0.1527 0.9883 33.9247 -46.5642)" class="st22" width="15.8" height="15.8"/>
		</g>
		<g>
			<polygon class="st21" points="361.3,123.1 377.1,123.6 378,109.7 362.2,110 			"/>
			
				<rect x="362.3" y="106.1" transform="matrix(0.9998 -2.121985e-02 2.121985e-02 0.9998 -2.3355 7.8808)" class="st24" width="15.8" height="15.8"/>
		</g>
		<g>
			<polygon class="st21" points="238.7,227.6 254.4,228.4 255.6,214.5 239.8,214.5 			"/>
			<rect x="239.8" y="210.8" class="st22" width="15.8" height="15.8"/>
		</g>
		<g>
			<polygon class="st21" points="257.5,228.9 273.1,227 271.9,213.1 256.3,215.8 			"/>
			
				<rect x="256.9" y="210.7" transform="matrix(0.985 -0.1724 0.1724 0.985 -33.7123 48.9204)" class="st22" width="15.8" height="15.8"/>
		</g>
		<g>
			<polygon class="st21" points="234.3,145.3 250,146.1 251.2,132.2 235.4,132.2 			"/>
			<rect x="235.4" y="128.5" class="st23" width="15.8" height="15.8"/>
		</g>
		<g>
			<polygon class="st21" points="296.7,202 312.4,202.8 313.6,188.9 297.8,188.9 			"/>
			<rect x="297.8" y="185.2" class="st23" width="15.8" height="15.8"/>
		</g>
		<g>
			<polygon class="st21" points="338.3,205.5 354.1,206.3 355.2,192.5 339.5,192.5 			"/>
			<rect x="339.5" y="188.7" class="st24" width="15.8" height="15.8"/>
		</g>
		<g>
			<polygon class="st21" points="355.4,203.4 371.2,204.2 372.3,190.4 356.5,190.4 			"/>
			<rect x="356.5" y="186.6" class="st23" width="15.8" height="15.8"/>
		</g>
		<g>
			<polygon class="st21" points="363,65.5 378.8,66.4 379.9,52.5 364.1,52.5 			"/>
			<rect x="364.1" y="48.7" class="st23" width="15.8" height="15.8"/>
		</g>
		<g>
			<polygon class="st21" points="385.3,76.9 384.8,79.3 399.5,82 401.7,70.5 395.7,76.9 			"/>
			
				<rect x="385.4" y="63" transform="matrix(0.9827 0.185 -0.185 0.9827 19.9015 -71.5509)" class="st23" width="15.8" height="15.8"/>
		</g>
		<g>
			<polygon class="st21" points="394.3,152.6 410.1,153.4 411.2,139.5 395.4,139.5 			"/>
			<rect x="395.4" y="135.8" class="st23" width="15.8" height="15.8"/>
		</g>
		<g>
			<polygon class="st21" points="208.7,182.2 217.6,183.2 220.5,169.6 208.7,167.6 			"/>
			
				<rect x="204.2" y="164.8" transform="matrix(0.992 0.1262 -0.1262 0.992 23.4847 -25.3811)" class="st22" width="15.8" height="15.8"/>
		</g>
		<g>
			<polygon class="st21" points="234.9,207.3 250.7,208.1 251.8,194.2 236,194.2 			"/>
			<rect x="236" y="190.5" class="st23" width="15.8" height="15.8"/>
		</g>
		<g>
			<polygon class="st21" points="252.7,207.3 268.5,208.1 269.6,194.2 253.9,194.2 			"/>
			<rect x="253.9" y="190.5" class="st22" width="15.8" height="15.8"/>
		</g>
		<g>
			<polygon class="st21" points="258.3,183.3 273.7,186.5 277,173 261.4,170.6 			"/>
			
				<rect x="260.7" y="168" transform="matrix(0.9883 0.1527 -0.1527 0.9883 30.0135 -38.9571)" class="st24" width="15.8" height="15.8"/>
		</g>
		<g>
			<polygon class="st21" points="348.5,156.2 364.2,157.4 365.6,143.5 349.9,143.2 			"/>
			
				<rect x="349.8" y="139.6" transform="matrix(0.9998 2.026583e-02 -2.026583e-02 0.9998 3.0624 -7.218)" class="st23" width="15.8" height="15.8"/>
		</g>
		<g>
			<polygon class="st21" points="382,148.9 397.8,150 399.2,136.1 383.4,135.8 			"/>
			
				<rect x="383.4" y="132.2" transform="matrix(0.9998 2.026577e-02 -2.026577e-02 0.9998 2.92 -7.9)" class="st24" width="15.8" height="15.8"/>
		</g>
		<g>
			<polygon class="st21" points="308.5,174.7 324.2,175.8 325.7,162 309.9,161.7 			"/>
			
				<rect x="309.8" y="158.1" transform="matrix(0.9998 2.026583e-02 -2.026583e-02 0.9998 3.4286 -6.4043)" class="st24" width="15.8" height="15.8"/>
		</g>
		<g>
			<polygon class="st21" points="253,147.4 268.7,146.5 268.4,132.6 252.7,134.3 			"/>
			
				<rect x="253.1" y="129.7" transform="matrix(0.9943 -0.1068 0.1068 0.9943 -13.1947 28.6488)" class="st25" width="15.8" height="15.8"/>
		</g>
		<g>
			<polygon class="st21" points="327.4,202.3 343.1,201.5 342.8,187.5 327.1,189.2 			"/>
			
				<rect x="327.5" y="184.6" transform="matrix(0.9943 -0.1068 0.1068 0.9943 -18.6312 36.9027)" class="st25" width="15.8" height="15.8"/>
		</g>
		<g>
			<polygon class="st21" points="304.8,148.4 320.5,147.6 320.2,133.6 304.5,135.3 			"/>
			
				<rect x="304.9" y="130.7" transform="matrix(0.9943 -0.1068 0.1068 0.9943 -13.0093 34.182)" class="st23" width="15.8" height="15.8"/>
		</g>
		<g>
			<polygon class="st21" points="317.1,150 332.7,152.2 335.1,138.4 319.4,137.1 			"/>
			
				<rect x="319" y="134" transform="matrix(0.9963 8.557691e-02 -8.557691e-02 0.9963 13.3393 -27.4516)" class="st22" width="15.8" height="15.8"/>
		</g>
		<g>
			<polygon class="st21" points="338.5,147.8 354.3,148.1 355,134.2 339.3,134.7 			"/>
			
				<rect x="339.4" y="130.7" transform="matrix(0.9995 -3.041916e-02 3.041916e-02 0.9995 -4.0553 10.6284)" class="st25" width="15.8" height="15.8"/>
		</g>
		<g>
			<polygon class="st21" points="384.1,109.6 399.8,109.1 399.1,95.5 386.5,95.3 386.6,98.5 383.9,98.5 			"/>
			
				<rect x="386.7" y="91.4" transform="matrix(0.9995 -3.042207e-02 3.042207e-02 0.9995 -2.8363 12.0484)" class="st25" width="15.8" height="15.8"/>
		</g>
		<g>
			<path class="st21" d="M336.5,101.8l14.7-0.5c-1.5-3.1-1.6-7.8-0.7-13.6l-9.9-0.2l-0.4,3.1h-4.3
				C335.5,95.3,335.7,99.1,336.5,101.8z"/>
			<path class="st25" d="M340.4,99.6l15.8-0.5c-1.5-3.9-1.3-9.5-0.5-15.8l-15.8,0.5C338.9,90.3,338.4,96.3,340.4,99.6z"/>
		</g>
		<g>
			<polygon class="st21" points="380.2,191.7 396,192.1 396.7,178.1 380.9,178.6 			"/>
			
				<rect x="381.1" y="174.6" transform="matrix(0.9995 -3.041915e-02 3.041915e-02 0.9995 -5.3723 11.9155)" class="st25" width="15.8" height="15.8"/>
		</g>
	</g>
	<g>
		<path class="st26" d="M337.3,171.8c-0.2-0.2-0.5-0.4-0.8-0.3c-0.1,0-0.2,0.1-0.3,0.2c-0.2,0.2-0.2,0.5-0.2,0.7c0,0,0,0.2,0,0.1
			c0,0.2,0,0.4,0.1,0.6c0.2,0.3,0.6,0.4,0.9,0.2C337.7,173,337.6,172.3,337.3,171.8z"/>
		<path class="st26" d="M338.8,159c-0.1-0.5-0.9-0.6-1.2-0.2c-0.9,1.3-0.8,3-1,4.5c-0.1,1.7-0.2,3.5,0.1,5.2c0.1,0.5,0.9,0.6,1,0
			c0.4-1.6,0.5-3.3,0.7-4.9C338.7,162.1,339.2,160.5,338.8,159z"/>
	</g>
</g>
</svg>
