<svg id="Layer_1" data-name="Layer 1" xmlns="http://www.w3.org/2000/svg" viewBox="0 0 537.2 391.85"><defs><style>.cls-1{fill:#dbdcdd;}.cls-2{fill:#f4f6f8;}.cls-3{fill:#fff;}.cls-4{fill:#fcb3b1;}.cls-5{fill:#f9e7c7;}.cls-6{fill:#ffd0c0;}.cls-7{fill:#ecb19e;}.cls-15,.cls-16,.cls-18,.cls-25,.cls-8{fill:none;}.cls-8{stroke:#dbdcdd;}.cls-16,.cls-8{stroke-linecap:round;}.cls-15,.cls-16,.cls-18,.cls-8{stroke-miterlimit:10;}.cls-15,.cls-8{stroke-width:0.5px;}.cls-9{fill:#36456c;}.cls-10{fill:#ededed;}.cls-11,.cls-24{fill:#3e4166;}.cls-12{fill:#171f2d;}.cls-13{fill:#272f42;}.cls-14{fill:#ffc251;}.cls-15{stroke:#ffc251;}.cls-16,.cls-18{stroke:#6977bf;}.cls-17{fill:#60c4c0;}.cls-19{fill:#4b507a;}.cls-20{fill:#cfebed;}.cls-21{fill:#dadee5;}.cls-22{fill:#fbdca2;}.cls-23{fill:#5e6fc1;}.cls-24{opacity:0.29;}</style></defs><title>Artboard 1 copy 2</title><polygon class="cls-1" points="379.53 38.73 131.81 38.73 131.81 247 423.88 247 423.88 38.73 379.53 38.73"/><polygon class="cls-2" points="371.41 31.98 123.68 31.98 123.68 240.25 415.76 240.25 415.76 31.98 371.41 31.98"/><rect class="cls-3" x="180.83" y="59.85" width="213.67" height="108.15"/><path class="cls-4" d="M249.21,179.21H234.13A57.47,57.47,0,0,1,232.8,165h15.08A57.46,57.46,0,0,0,249.21,179.21Z"/><path class="cls-5" d="M241.53,195.57H226.46a57.47,57.47,0,0,1-1.33-14.22H240.2A57.45,57.45,0,0,0,241.53,195.57Z"/><path class="cls-5" d="M263.15,195.57H248.07a57.47,57.47,0,0,1-1.33-14.22h15.08A57.46,57.46,0,0,0,263.15,195.57Z"/><path class="cls-5" d="M282.22,195.57H267.14a57.46,57.46,0,0,1-1.33-14.22h15.08A57.47,57.47,0,0,0,282.22,195.57Z"/><path class="cls-5" d="M302.48,195.57H287.4a57.47,57.47,0,0,1-1.33-14.22h15.08A57.45,57.45,0,0,0,302.48,195.57Z"/><path class="cls-6" d="M218.45,176.08l-1.63,1c-2,1.21-4.52,1-5.61-.36l-25.74-33.42c-1.09-1.41-.34-3.53,1.68-4.74l1.63-1c2-1.21,4.52-1,5.61.36l25.74,33.42C221.21,172.75,220.46,174.87,218.45,176.08Z"/><path class="cls-6" d="M231.17,137.86l6.38-6.75c.28-.3-.93-1.49-1.1-3.24L234,126.13c-1-1-.86-1.89-1.65-1.09l-7.53,5.77c-1.16,1.17-.94,3.29.49,4.7l2,2C228.8,138.93,230,139,231.17,137.86Z"/><path class="cls-7" d="M204.19,167.57s3-2.61,4.08-3.44,4-2.95,4-2.95l-3.44-4.38-8.06,6.35Z"/><path class="cls-6" d="M215.35,177.45l-2.11-.4c-2.19-.41-3.55-2.08-3-3.71L222.67,133c.51-1.64,2.69-2.63,4.87-2.21l1.47,3c0,2.13.48.49,0,2.13l-8.76,39.36C219.72,176.88,217.54,177.87,215.35,177.45Z"/><path class="cls-6" d="M225.58,132.69l1.52-5.9c.11-.44-.37-.95-1.08-1.13h0c-.71-.18-.65.46-.76.9L223,132c-.11.44.37.95,1.08,1.13h0C224.8,133.34,225.47,133.13,225.58,132.69Z"/><path class="cls-6" d="M154.62,92.33c0-11.91,7.12-17.65,15.42-17.65s14.64,5.73,14.64,17.65-6.34,25.49-14.64,25.49S154.62,104.24,154.62,92.33Z"/><polygon class="cls-6" points="180.37 136.11 160.76 136.11 164.69 113.89 176.45 113.89 180.37 136.11"/><path class="cls-6" d="M127.8,173.31,141,151.62l9.37,5L138,176.94c-.91,1.49-3.45,2.06-5.68,1.27l-2.15-.76C128,176.66,126.89,174.81,127.8,173.31Z"/><path class="cls-7" d="M131.8,166.72s3.6,1.86,4.67,2.52,4.38,3,4.38,3l3.06-4.68-8-7.86Z"/><path class="cls-6" d="M139.59,214.25l-2.19.58c-2.27.6-4.29-.17-4.51-1.72L127.5,175c-.22-1.55,1.44-3.28,3.71-3.88l2.19-.58c2.27-.6,4.29.17,4.51,1.72l5.4,38.14C143.53,211.91,141.86,213.65,139.59,214.25Z"/><path class="cls-6" d="M143.18,222.48c.05.23.46.56.63.32,1.2-1.8.12-7.28-.47-9l-.49-3.82a2.41,2.41,0,0,0-3.12-1.33l-5,1.73a2.41,2.41,0,0,0-1.63,3,16.3,16.3,0,0,1,1.28,2.62,47.52,47.52,0,0,0,4.71,7.24c.08.1.47.19.34-.36-.32-1.38-2.59-5.43-2.37-5.65s.15-.36.28-.2c.94,1.08,2,4.61,3.43,6.32.07.08.55,0,.13-1.4,0-.11-1.73-5.48-1.66-5.41s.23-.19.3-.1c.71.93,2.16,6.81,2.63,7.49.05.07.31.46.51.49s.44-.35.44-.57-1.74-8.06-1.66-8,.43-.25.47-.15C143.68,220.52,143,221.52,143.18,222.48Z"/><path class="cls-6" d="M146.41,215.59h0a1.94,1.94,0,0,0,.25-1.75l-3.74-4.63a.76.76,0,0,0-1,0l-.39.31a.76.76,0,0,0-.26,1l3.74,4.63C145.19,215.47,146,215.88,146.41,215.59Z"/><path class="cls-4" d="M273.78,179.21H258.7A110.9,110.9,0,0,0,257.37,165h15.08A111,111,0,0,1,273.78,179.21Z"/><path class="cls-3" d="M188.21,177.94h-33.6s-11.77-36.26-5.36-45.85c2.1-3.14,7.29-5.23,13.32-6.24,0,0,1.29,3,7.5,3,6.53,0,8.44-3.21,8.44-3.21,4.6.68,8.52,2,10.67,4.11C197.87,138.1,188.21,177.94,188.21,177.94Z"/><path class="cls-3" d="M242,202.71H227a24.74,24.74,0,0,1-1.33-5.73h15.08A24.74,24.74,0,0,0,242,202.71Z"/><line class="cls-8" x1="227.61" y1="198.02" x2="236.33" y2="198.02"/><line class="cls-8" x1="227.61" y1="199.12" x2="236.33" y2="199.12"/><line class="cls-8" x1="227.93" y1="200.76" x2="236.66" y2="200.76"/><line class="cls-8" x1="228.4" y1="201.8" x2="239.8" y2="201.8"/><path class="cls-3" d="M264.63,202.71H249.55a24.74,24.74,0,0,1-1.33-5.73h15.08A24.74,24.74,0,0,0,264.63,202.71Z"/><line class="cls-8" x1="250.19" y1="198.02" x2="258.91" y2="198.02"/><line class="cls-8" x1="250.19" y1="199.12" x2="258.91" y2="199.12"/><line class="cls-8" x1="250.52" y1="200.76" x2="259.24" y2="200.76"/><line class="cls-8" x1="250.98" y1="201.8" x2="262.39" y2="201.8"/><path class="cls-3" d="M267.89,209.85H252.81a24.74,24.74,0,0,1-1.33-5.73h15.08A24.73,24.73,0,0,0,267.89,209.85Z"/><line class="cls-8" x1="253.45" y1="205.16" x2="262.17" y2="205.16"/><line class="cls-8" x1="253.45" y1="206.26" x2="262.17" y2="206.26"/><line class="cls-8" x1="253.78" y1="207.9" x2="262.5" y2="207.9"/><line class="cls-8" x1="254.24" y1="208.94" x2="265.65" y2="208.94"/><path class="cls-3" d="M284.25,202.71H269.18a24.74,24.74,0,0,1-1.33-5.73h15.08A24.74,24.74,0,0,0,284.25,202.71Z"/><line class="cls-8" x1="269.81" y1="198.02" x2="278.54" y2="198.02"/><line class="cls-8" x1="269.81" y1="199.12" x2="278.54" y2="199.12"/><line class="cls-8" x1="270.14" y1="200.76" x2="278.86" y2="200.76"/><line class="cls-8" x1="270.61" y1="201.8" x2="282.01" y2="201.8"/><path class="cls-3" d="M286.23,209.81H271.15a24.74,24.74,0,0,1-1.33-5.73h15.08A24.74,24.74,0,0,0,286.23,209.81Z"/><line class="cls-8" x1="271.78" y1="205.11" x2="280.51" y2="205.11"/><line class="cls-8" x1="271.78" y1="206.22" x2="280.51" y2="206.22"/><line class="cls-8" x1="272.11" y1="207.86" x2="280.83" y2="207.86"/><line class="cls-8" x1="272.58" y1="208.9" x2="283.98" y2="208.9"/><path class="cls-3" d="M304.44,203.41H289.36a24.74,24.74,0,0,1-1.33-5.73H303.1A24.74,24.74,0,0,0,304.44,203.41Z"/><line class="cls-8" x1="290" y1="198.72" x2="298.72" y2="198.72"/><line class="cls-8" x1="290" y1="199.82" x2="298.72" y2="199.82"/><line class="cls-8" x1="290.33" y1="201.46" x2="299.05" y2="201.46"/><line class="cls-8" x1="290.79" y1="202.5" x2="302.2" y2="202.5"/><path class="cls-3" d="M306.24,210.4H291.16a24.74,24.74,0,0,1-1.33-5.73H304.9A24.74,24.74,0,0,0,306.24,210.4Z"/><line class="cls-8" x1="291.8" y1="205.71" x2="300.52" y2="205.71"/><line class="cls-8" x1="291.8" y1="206.81" x2="300.52" y2="206.81"/><line class="cls-8" x1="292.12" y1="208.45" x2="300.85" y2="208.45"/><line class="cls-8" x1="292.59" y1="209.49" x2="304" y2="209.49"/><path class="cls-3" d="M308.44,217.79H293.36a24.74,24.74,0,0,1-1.33-5.73H307.1A24.74,24.74,0,0,0,308.44,217.79Z"/><line class="cls-8" x1="294" y1="213.1" x2="302.72" y2="213.1"/><line class="cls-8" x1="294" y1="214.2" x2="302.72" y2="214.2"/><line class="cls-8" x1="294.32" y1="215.84" x2="303.05" y2="215.84"/><line class="cls-8" x1="294.79" y1="216.88" x2="306.2" y2="216.88"/><path class="cls-3" d="M265.79,215.58H250.71a24.75,24.75,0,0,1-1.33-5.73h15.08A24.74,24.74,0,0,0,265.79,215.58Z"/><line class="cls-8" x1="251.35" y1="210.88" x2="260.07" y2="210.88"/><line class="cls-8" x1="251.35" y1="211.99" x2="260.07" y2="211.99"/><line class="cls-8" x1="251.68" y1="213.63" x2="260.4" y2="213.63"/><line class="cls-8" x1="252.14" y1="214.67" x2="263.55" y2="214.67"/><path class="cls-3" d="M242.44,209.69H227.36A24.74,24.74,0,0,1,226,204h15.08A24.74,24.74,0,0,0,242.44,209.69Z"/><line class="cls-8" x1="228" y1="204.99" x2="236.72" y2="204.99"/><line class="cls-8" x1="228" y1="206.09" x2="236.72" y2="206.09"/><line class="cls-8" x1="228.33" y1="207.74" x2="237.05" y2="207.74"/><line class="cls-8" x1="228.79" y1="208.78" x2="240.2" y2="208.78"/><path class="cls-3" d="M243.53,216.66H228.46a24.74,24.74,0,0,1-1.33-5.73H242.2A24.74,24.74,0,0,0,243.53,216.66Z"/><line class="cls-8" x1="229.09" y1="211.97" x2="237.81" y2="211.97"/><line class="cls-8" x1="229.09" y1="213.07" x2="237.81" y2="213.07"/><line class="cls-8" x1="229.42" y1="214.71" x2="238.14" y2="214.71"/><line class="cls-8" x1="229.88" y1="215.75" x2="241.29" y2="215.75"/><rect class="cls-3" x="140.04" y="133.17" width="13.28" height="33.33" transform="translate(94.57 -53.27) rotate(30)"/><rect class="cls-3" x="187.81" y="130.23" width="13.28" height="33.33" transform="translate(-49.14 154.28) rotate(-38.81)"/><path class="cls-6" d="M185.77,100.87c-.58.58-3.2-.58-3.2-.58s.31-5.22,1.21-6.65c.51-.81,3.25-2.35,3.57-1.44C187.95,93.94,186.68,100,185.77,100.87Z"/><polygon class="cls-6" points="128.69 347.44 122.34 347.44 151.21 223.36 168.19 223.36 128.69 347.44"/><polygon class="cls-6" points="203 345.82 196.54 346.18 176.07 222.91 183.13 222.91 203 345.82"/><path class="cls-9" d="M195.71,355.71l19.86.12a30.08,30.08,0,0,0-2.54-3.18c-2.69-2.49-10-6.82-10-6.82l-6.45.3Z"/><path class="cls-10" d="M200.15,351.67l12.07.29a42.49,42.49,0,0,0-3.7-2.66c-4.38-2.89-5.53-3.48-5.53-3.48l-6.12.3Z"/><path class="cls-9" d="M129.89,357.31l-24.47,2.19a35,35,0,0,1,3.57-3.2c3.77-2.51,13.44-9.25,13.44-9.25l6.41-.1Z"/><polygon class="cls-10" points="123.88 352.77 111.39 354.63 122.44 347.05 128.85 346.95 123.88 352.77"/><path class="cls-11" d="M202.67,336.34h-9s-13.9-63.9-17.63-82c-2.61-12.66-4.06-41.06-4.06-41.06s-6.06,27.78-8.85,36.83c-7,22.69-30.39,88.85-30.39,88.85h-9.11l28-147.18S164.27,191,172,191s20.11.77,20.11.77,3.23,33,3.11,42.65C194.92,259.94,202.67,336.34,202.67,336.34Z"/><line class="cls-6" x1="207.48" y1="155.62" x2="202.8" y2="139.26"/><path class="cls-3" d="M189.56,192.32a58.71,58.71,0,0,1-36.28,0L156,174a50,50,0,0,0,30.91,0Z"/><rect class="cls-2" x="181.93" y="81.81" width="31.4" height="16.94" rx="4" ry="4"/><path class="cls-12" d="M152.23,94.59c1.81,11.3-9,20-1.78,31.34,7.4,11.53,38.71,25.89,46.18,17.56,3.82-4.26.29-4.41-2.35-12.42-5.22-15.88,9.07-36.47,4.36-42.3C194.89,84.1,184,61.92,176.37,63.21c-10.61,1.8-17.1,8.49-21.85,12.1C148.3,80.06,151.22,88.33,152.23,94.59Z"/><path class="cls-13" d="M152.65,97.06s-2.78-12,6.17-7.8c12,5.56,3.07-28.59,22.78-9.39,16.53,16.11,17.59,9.71,17.59,9.71-2.36-8-.52-7.53-5.61-12-7.25-6.38-9.62-15.65-17.21-14.36-10.61,1.8-14.24,6.18-21.85,12.1C146.55,81.53,152.65,97.06,152.65,97.06Z"/><path class="cls-12" d="M200.21,127.42c.65,2.81-1.17,3.94-2.36,4.21s-1.3-.4-2-3.21-1.6-6.7-.41-7S199.55,124.61,200.21,127.42Z"/><rect class="cls-2" x="224.1" y="73.34" width="31.4" height="16.94" rx="4" ry="4"/><rect class="cls-2" x="211.42" y="100.83" width="31.4" height="16.94" rx="4" ry="4"/><rect class="cls-2" x="269.72" y="73.34" width="31.4" height="16.94" rx="4" ry="4"/><rect class="cls-2" x="258.57" y="100.83" width="31.4" height="16.94" rx="4" ry="4"/><circle class="cls-14" cx="209.33" cy="88.01" r="1.71"/><circle class="cls-14" cx="296.56" cy="89.6" r="1.71"/><circle class="cls-14" cx="223.01" cy="117.81" r="1.71"/><path class="cls-15" d="M265.81,100.83V67c0-2.17-1.29-3.94-2.86-3.94H212.19c-1.57,0-2.86,1.77-2.86,3.94V89.47"/><path class="cls-15" d="M223,117.77h0c0,3.42,1.63,5.25,3.68,5.25h66c2,0,3.72-2.8,3.72-6.22V90.29"/><path class="cls-16" d="M230.26,94.47c.26-.93-.73-1.83-1.7-1.85a4.52,4.52,0,0,0-2.62,1.12,48.18,48.18,0,0,0-6.75,6c-2.83,3-5.32,6.52-6.17,10.56s.25,8.69,3.53,11.2c4.09,3.14,10.06,2.1,14.66-.23a32.34,32.34,0,0,0,13.88-13.61c2.08-3.93,3.16-9.22.15-12.5-2.73-3-7.5-2.81-11.36-1.63-9.07,2.77-16.3,9.55-22.72,16.52"/><path class="cls-5" d="M344.67,179.46H329.59a57.47,57.47,0,0,1-1.33-14.22h15.08A57.47,57.47,0,0,0,344.67,179.46Z"/><path class="cls-5" d="M363.28,179.46H348.2a57.47,57.47,0,0,1-1.33-14.22h15.08A57.48,57.48,0,0,0,363.28,179.46Z"/><path class="cls-5" d="M386.35,179.46H371.27a57.47,57.47,0,0,1-1.33-14.22H385A57.47,57.47,0,0,0,386.35,179.46Z"/><path class="cls-5" d="M405.61,179.46H390.54a57.47,57.47,0,0,1-1.33-14.22h15.08A57.46,57.46,0,0,0,405.61,179.46Z"/><path class="cls-4" d="M350.48,167.21H335.4A57.47,57.47,0,0,1,334.07,153h15.08A57.48,57.48,0,0,0,350.48,167.21Z"/><path class="cls-4" d="M375.14,165.26H360.06A57.47,57.47,0,0,1,358.73,151h15.08A57.47,57.47,0,0,0,375.14,165.26Z"/><path class="cls-17" d="M365.57,149.09H350.49A44.38,44.38,0,0,1,351.86,134h15.08A44.39,44.39,0,0,0,365.57,149.09Z"/><path class="cls-17" d="M335.39,95.55H320.32a44.38,44.38,0,0,1,1.37-15.08h15.08A44.39,44.39,0,0,0,335.39,95.55Z"/><path class="cls-17" d="M365.44,95.43H350.37a44.38,44.38,0,0,1,1.37-15.08h15.08A44.39,44.39,0,0,0,365.44,95.43Z"/><path class="cls-4" d="M343.08,105.86H328a57.47,57.47,0,0,1-1.33-14.22h15.08A57.47,57.47,0,0,0,343.08,105.86Z"/><path class="cls-17" d="M260.61,158.58H245.53a44.38,44.38,0,0,1,1.37-15.08H262A44.39,44.39,0,0,0,260.61,158.58Z"/><path class="cls-3" d="M345,189.54H329.87a24.74,24.74,0,0,1-1.33-5.73h15.08A24.74,24.74,0,0,0,345,189.54Z"/><line class="cls-8" x1="330.51" y1="184.85" x2="339.23" y2="184.85"/><line class="cls-8" x1="330.51" y1="185.95" x2="339.23" y2="185.95"/><line class="cls-8" x1="330.84" y1="187.59" x2="339.56" y2="187.59"/><line class="cls-8" x1="331.3" y1="188.63" x2="342.71" y2="188.63"/><path class="cls-3" d="M366.53,189.54H351.46a24.74,24.74,0,0,1-1.33-5.73H365.2A24.74,24.74,0,0,0,366.53,189.54Z"/><line class="cls-8" x1="352.09" y1="184.85" x2="360.81" y2="184.85"/><line class="cls-8" x1="352.09" y1="185.95" x2="360.81" y2="185.95"/><line class="cls-8" x1="352.42" y1="187.59" x2="361.14" y2="187.59"/><line class="cls-8" x1="352.88" y1="188.63" x2="364.29" y2="188.63"/><path class="cls-3" d="M366.79,196.68H351.72a24.74,24.74,0,0,1-1.33-5.73h15.08A24.75,24.75,0,0,0,366.79,196.68Z"/><line class="cls-8" x1="352.35" y1="191.99" x2="361.07" y2="191.99"/><line class="cls-8" x1="352.35" y1="193.09" x2="361.07" y2="193.09"/><line class="cls-8" x1="352.68" y1="194.73" x2="361.4" y2="194.73"/><line class="cls-8" x1="353.14" y1="195.77" x2="364.55" y2="195.77"/><path class="cls-3" d="M386.16,189.54H371.08a24.74,24.74,0,0,1-1.33-5.73h15.08A24.74,24.74,0,0,0,386.16,189.54Z"/><line class="cls-8" x1="371.72" y1="184.85" x2="380.44" y2="184.85"/><line class="cls-8" x1="371.72" y1="185.95" x2="380.44" y2="185.95"/><line class="cls-8" x1="372.05" y1="187.59" x2="380.77" y2="187.59"/><line class="cls-8" x1="372.51" y1="188.63" x2="383.92" y2="188.63"/><path class="cls-3" d="M388.13,198.64H373.05a24.73,24.73,0,0,1-1.33-5.73h15.08A24.74,24.74,0,0,0,388.13,198.64Z"/><line class="cls-8" x1="373.69" y1="193.94" x2="382.41" y2="193.94"/><line class="cls-8" x1="373.69" y1="195.04" x2="382.41" y2="195.04"/><line class="cls-8" x1="374.02" y1="196.69" x2="382.74" y2="196.69"/><line class="cls-8" x1="374.48" y1="197.73" x2="385.89" y2="197.73"/><path class="cls-3" d="M406.34,190.24H391.27a24.74,24.74,0,0,1-1.33-5.73H405A24.74,24.74,0,0,0,406.34,190.24Z"/><line class="cls-8" x1="391.9" y1="185.54" x2="400.62" y2="185.54"/><line class="cls-8" x1="391.9" y1="186.65" x2="400.62" y2="186.65"/><line class="cls-8" x1="392.23" y1="188.29" x2="400.95" y2="188.29"/><line class="cls-8" x1="392.69" y1="189.33" x2="404.1" y2="189.33"/><path class="cls-3" d="M408.14,199.23H393.07a24.75,24.75,0,0,1-1.33-5.73h15.08A24.73,24.73,0,0,0,408.14,199.23Z"/><line class="cls-8" x1="393.7" y1="194.54" x2="402.42" y2="194.54"/><line class="cls-8" x1="393.7" y1="195.64" x2="402.42" y2="195.64"/><line class="cls-8" x1="394.03" y1="197.28" x2="402.75" y2="197.28"/><line class="cls-8" x1="394.49" y1="198.32" x2="405.9" y2="198.32"/><path class="cls-3" d="M392.12,214.08H377a24.75,24.75,0,0,1-1.33-5.73h15.08A24.73,24.73,0,0,0,392.12,214.08Z"/><line class="cls-8" x1="377.68" y1="209.39" x2="386.4" y2="209.39"/><line class="cls-8" x1="377.68" y1="210.49" x2="386.4" y2="210.49"/><line class="cls-8" x1="378.01" y1="212.13" x2="386.73" y2="212.13"/><line class="cls-8" x1="378.47" y1="213.17" x2="389.88" y2="213.17"/><path class="cls-3" d="M388,206.36H372.9a24.74,24.74,0,0,1-1.33-5.73h15.08A24.74,24.74,0,0,0,388,206.36Z"/><line class="cls-8" x1="373.53" y1="201.66" x2="382.26" y2="201.66"/><line class="cls-8" x1="373.53" y1="202.77" x2="382.26" y2="202.77"/><line class="cls-8" x1="373.86" y1="204.41" x2="382.58" y2="204.41"/><line class="cls-8" x1="374.33" y1="205.45" x2="385.73" y2="205.45"/><path class="cls-3" d="M369.19,204.45H354.11a24.73,24.73,0,0,1-1.33-5.73h15.08A24.74,24.74,0,0,0,369.19,204.45Z"/><line class="cls-8" x1="354.75" y1="199.76" x2="363.47" y2="199.76"/><line class="cls-8" x1="354.75" y1="200.86" x2="363.47" y2="200.86"/><line class="cls-8" x1="355.07" y1="202.5" x2="363.8" y2="202.5"/><line class="cls-8" x1="355.54" y1="203.54" x2="366.94" y2="203.54"/><path class="cls-3" d="M367,211.18H352a24.74,24.74,0,0,1-1.33-5.73H365.7A24.74,24.74,0,0,0,367,211.18Z"/><line class="cls-8" x1="352.59" y1="206.48" x2="361.31" y2="206.48"/><line class="cls-8" x1="352.59" y1="207.58" x2="361.31" y2="207.58"/><line class="cls-8" x1="352.92" y1="209.22" x2="361.64" y2="209.22"/><line class="cls-8" x1="353.38" y1="210.26" x2="364.79" y2="210.26"/><path class="cls-3" d="M371.25,217.8H356.17a24.73,24.73,0,0,1-1.33-5.73h15.08A24.74,24.74,0,0,0,371.25,217.8Z"/><line class="cls-8" x1="356.81" y1="213.11" x2="365.53" y2="213.11"/><line class="cls-8" x1="356.81" y1="214.21" x2="365.53" y2="214.21"/><line class="cls-8" x1="357.14" y1="215.85" x2="365.86" y2="215.85"/><line class="cls-8" x1="357.6" y1="216.89" x2="369.01" y2="216.89"/><path class="cls-3" d="M372.09,224.52H357a24.74,24.74,0,0,1-1.33-5.73h15.08A24.74,24.74,0,0,0,372.09,224.52Z"/><line class="cls-8" x1="357.65" y1="219.83" x2="366.38" y2="219.83"/><line class="cls-8" x1="357.65" y1="220.93" x2="366.38" y2="220.93"/><line class="cls-8" x1="357.98" y1="222.57" x2="366.7" y2="222.57"/><line class="cls-8" x1="358.45" y1="223.61" x2="369.85" y2="223.61"/><path class="cls-3" d="M308.5,223.56H293.42a24.73,24.73,0,0,1-1.33-5.73h15.08A24.74,24.74,0,0,0,308.5,223.56Z"/><line class="cls-8" x1="294.06" y1="218.87" x2="302.78" y2="218.87"/><line class="cls-8" x1="294.06" y1="219.97" x2="302.78" y2="219.97"/><line class="cls-8" x1="294.39" y1="221.61" x2="303.11" y2="221.61"/><line class="cls-8" x1="294.85" y1="222.65" x2="306.26" y2="222.65"/><path class="cls-3" d="M310.35,231.28H295.27a24.74,24.74,0,0,1-1.33-5.73H309A24.74,24.74,0,0,0,310.35,231.28Z"/><line class="cls-8" x1="295.9" y1="226.59" x2="304.63" y2="226.59"/><line class="cls-8" x1="295.9" y1="227.69" x2="304.63" y2="227.69"/><line class="cls-8" x1="296.23" y1="229.33" x2="304.95" y2="229.33"/><line class="cls-8" x1="296.7" y1="230.37" x2="308.1" y2="230.37"/><path class="cls-3" d="M286.29,216.91H271.21a24.73,24.73,0,0,1-1.33-5.73H285A24.74,24.74,0,0,0,286.29,216.91Z"/><line class="cls-8" x1="271.85" y1="212.21" x2="280.57" y2="212.21"/><line class="cls-8" x1="271.85" y1="213.31" x2="280.57" y2="213.31"/><line class="cls-8" x1="272.18" y1="214.96" x2="280.9" y2="214.96"/><line class="cls-8" x1="272.64" y1="216" x2="284.05" y2="216"/><path class="cls-3" d="M289.13,223.63H274.06a24.74,24.74,0,0,1-1.33-5.73H287.8A24.74,24.74,0,0,0,289.13,223.63Z"/><line class="cls-8" x1="274.69" y1="218.93" x2="283.42" y2="218.93"/><line class="cls-8" x1="274.69" y1="220.04" x2="283.42" y2="220.04"/><line class="cls-8" x1="275.02" y1="221.68" x2="283.74" y2="221.68"/><line class="cls-8" x1="275.48" y1="222.72" x2="286.89" y2="222.72"/><path class="cls-3" d="M346.35,196.52H331.27a24.74,24.74,0,0,1-1.33-5.73H345A24.74,24.74,0,0,0,346.35,196.52Z"/><line class="cls-8" x1="331.9" y1="191.82" x2="340.63" y2="191.82"/><line class="cls-8" x1="331.9" y1="192.92" x2="340.63" y2="192.92"/><line class="cls-8" x1="332.23" y1="194.56" x2="340.95" y2="194.56"/><line class="cls-8" x1="332.7" y1="195.61" x2="344.1" y2="195.61"/><path class="cls-3" d="M345.44,203.49H330.36a24.74,24.74,0,0,1-1.33-5.73H344.1A24.74,24.74,0,0,0,345.44,203.49Z"/><line class="cls-8" x1="331" y1="198.8" x2="339.72" y2="198.8"/><line class="cls-8" x1="331" y1="199.9" x2="339.72" y2="199.9"/><line class="cls-8" x1="331.32" y1="201.54" x2="340.05" y2="201.54"/><line class="cls-8" x1="331.79" y1="202.58" x2="343.2" y2="202.58"/><polyline class="cls-18" points="455.4 91.58 447.22 92.29 451.95 99.06"/><polyline class="cls-18" points="463.93 95.02 468.37 101.92 460.12 102.31"/><line class="cls-18" x1="460.88" y1="91.12" x2="455.34" y2="102.99"/><rect class="cls-18" x="68.49" y="181.33" width="12.42" height="2.38" rx="0.7" ry="0.7" transform="translate(122.84 -8.73) rotate(36.39)"/><polygon class="cls-18" points="86.99 165.29 73.95 173.12 71.94 179.46 78.34 184.18 84.06 180.28 86.99 165.29"/><line class="cls-18" x1="87.01" y1="165.31" x2="80.39" y2="174.3"/><rect class="cls-18" x="78.21" y="174.32" width="2.45" height="2.54" rx="0.2" ry="0.2" transform="translate(-25.4 13.88) rotate(-8.61)"/><rect class="cls-19" x="446.53" y="164.18" width="32.96" height="28.17" rx="4.08" ry="4.08" transform="translate(103.1 -163.23) rotate(22.44)"/><path class="cls-11" d="M452.66,164.93h29.83a1.58,1.58,0,0,1,1.58,1.58v3a0,0,0,0,1,0,0h-33a0,0,0,0,1,0,0v-3a1.58,1.58,0,0,1,1.58-1.58Z" transform="translate(99.22 -165.81) rotate(22.44)"/><rect class="cls-20" x="452.78" y="169.96" width="19.06" height="1.25" transform="translate(100.11 -163.55) rotate(22.44)"/><rect class="cls-21" x="454.94" y="170.74" width="5.71" height="1.25" transform="translate(100.07 -161.76) rotate(22.44)"/><rect class="cls-22" x="455.16" y="175.31" width="14.65" height="1.25" transform="translate(102.17 -163.2) rotate(22.44)"/><rect class="cls-22" x="456.11" y="179.68" width="21.34" height="1.25" transform="translate(104.16 -164.51) rotate(22.44)"/><rect class="cls-21" x="454.11" y="181.13" width="17.98" height="1.25" transform="translate(104.44 -163) rotate(22.44)"/><rect class="cls-20" x="449.15" y="181.26" width="14.97" height="1.25" transform="translate(104 -160.52) rotate(22.44)"/><path class="cls-19" d="M91.23,95.23a6.91,6.91,0,0,1,5.63-7.6,10.73,10.73,0,1,0-11.47,13.56A8.18,8.18,0,0,1,91.23,95.23Z"/><path class="cls-21" d="M93,99.13a10.69,10.69,0,0,1-7,2.13c-.21,0-.41,0-.61-.06a8.17,8.17,0,1,0,15.75-.41A7,7,0,0,1,93,99.13Z"/><path class="cls-23" d="M93,99.13a7,7,0,0,1-1.73-3.9,8.18,8.18,0,0,0-5.85,6c.2,0,.4.05.61.06A10.69,10.69,0,0,0,93,99.13Z"/><path class="cls-21" d="M105.12,94.83a6.95,6.95,0,0,0-8.26-7.2,10.64,10.64,0,0,1-.79,7.8,8.18,8.18,0,0,1,5.06,5.35A7,7,0,0,0,105.12,94.83Z"/><path class="cls-23" d="M91.19,94.13a7,7,0,0,0,0,1.1,8.16,8.16,0,0,1,4.84.21,10.64,10.64,0,0,0,.79-7.8A7,7,0,0,0,91.19,94.13Z"/><path class="cls-24" d="M96.07,95.44A10.76,10.76,0,0,1,93,99.13a7,7,0,0,0,8.17,1.66A8.18,8.18,0,0,0,96.07,95.44Z"/><path class="cls-25" d="M91.23,95.23A7,7,0,0,0,93,99.13a10.76,10.76,0,0,0,3.11-3.69,8.16,8.16,0,0,0-4.84-.21Z"/></svg>